<mxfile host="app.diagrams.net" modified="2023-04-03T05:53:33.177Z" agent="Mozilla/5.0 (Windows NT 10.0; Win64; x64) AppleWebKit/537.36 (KHTML, like Gecko) Chrome/111.0.0.0 Safari/537.36" etag="0u4tURHvS_lEQgO4Pvlg" version="21.1.2" type="github">
  <diagram name="Page-1" id="HrtkV_2TJ7zZJBn_xhIz">
    <mxGraphModel dx="880" dy="1527" grid="1" gridSize="10" guides="1" tooltips="1" connect="1" arrows="1" fold="1" page="1" pageScale="1" pageWidth="850" pageHeight="1100" math="0" shadow="0">
      <root>
        <mxCell id="0" />
        <mxCell id="1" parent="0" />
        <mxCell id="E9gw3oUcyaAQnoMlAk7j-12" style="edgeStyle=orthogonalEdgeStyle;rounded=0;orthogonalLoop=1;jettySize=auto;html=1;exitX=0.5;exitY=1;exitDx=0;exitDy=0;entryX=0.5;entryY=0;entryDx=0;entryDy=0;" parent="1" source="E9gw3oUcyaAQnoMlAk7j-1" target="E9gw3oUcyaAQnoMlAk7j-2" edge="1">
          <mxGeometry relative="1" as="geometry" />
        </mxCell>
        <mxCell id="E9gw3oUcyaAQnoMlAk7j-1" value="START" style="rounded=1;whiteSpace=wrap;html=1;" parent="1" vertex="1">
          <mxGeometry x="230" y="-235" width="120" height="60" as="geometry" />
        </mxCell>
        <mxCell id="E9gw3oUcyaAQnoMlAk7j-13" style="edgeStyle=orthogonalEdgeStyle;rounded=0;orthogonalLoop=1;jettySize=auto;html=1;exitX=0.5;exitY=1;exitDx=0;exitDy=0;entryX=0.5;entryY=0;entryDx=0;entryDy=0;" parent="1" source="E9gw3oUcyaAQnoMlAk7j-2" target="E9gw3oUcyaAQnoMlAk7j-3" edge="1">
          <mxGeometry relative="1" as="geometry" />
        </mxCell>
        <mxCell id="E9gw3oUcyaAQnoMlAk7j-2" value="inf faktor = 0&lt;br&gt;int bilangan&lt;br&gt;int a" style="shape=hexagon;perimeter=hexagonPerimeter2;whiteSpace=wrap;html=1;fixedSize=1;" parent="1" vertex="1">
          <mxGeometry x="230" y="-143" width="120" height="80" as="geometry" />
        </mxCell>
        <mxCell id="E9gw3oUcyaAQnoMlAk7j-14" style="edgeStyle=orthogonalEdgeStyle;rounded=0;orthogonalLoop=1;jettySize=auto;html=1;exitX=0.5;exitY=1;exitDx=0;exitDy=0;entryX=0.5;entryY=0;entryDx=0;entryDy=0;" parent="1" source="E9gw3oUcyaAQnoMlAk7j-3" target="E9gw3oUcyaAQnoMlAk7j-4" edge="1">
          <mxGeometry relative="1" as="geometry" />
        </mxCell>
        <mxCell id="E9gw3oUcyaAQnoMlAk7j-3" value="INPUT&lt;br&gt;BIlangan" style="shape=parallelogram;perimeter=parallelogramPerimeter;whiteSpace=wrap;html=1;fixedSize=1;" parent="1" vertex="1">
          <mxGeometry x="230" y="-20" width="120" height="60" as="geometry" />
        </mxCell>
        <mxCell id="E9gw3oUcyaAQnoMlAk7j-16" style="edgeStyle=orthogonalEdgeStyle;rounded=0;orthogonalLoop=1;jettySize=auto;html=1;exitX=0.5;exitY=1;exitDx=0;exitDy=0;entryX=0.5;entryY=0;entryDx=0;entryDy=0;" parent="1" source="E9gw3oUcyaAQnoMlAk7j-4" target="E9gw3oUcyaAQnoMlAk7j-5" edge="1">
          <mxGeometry relative="1" as="geometry" />
        </mxCell>
        <mxCell id="E9gw3oUcyaAQnoMlAk7j-4" value="a = 1" style="shape=hexagon;perimeter=hexagonPerimeter2;whiteSpace=wrap;html=1;fixedSize=1;" parent="1" vertex="1">
          <mxGeometry x="230" y="73" width="120" height="40" as="geometry" />
        </mxCell>
        <mxCell id="E9gw3oUcyaAQnoMlAk7j-18" style="edgeStyle=orthogonalEdgeStyle;rounded=0;orthogonalLoop=1;jettySize=auto;html=1;exitX=1;exitY=0.5;exitDx=0;exitDy=0;entryX=0;entryY=0.5;entryDx=0;entryDy=0;" parent="1" source="E9gw3oUcyaAQnoMlAk7j-5" target="E9gw3oUcyaAQnoMlAk7j-6" edge="1">
          <mxGeometry relative="1" as="geometry" />
        </mxCell>
        <mxCell id="E9gw3oUcyaAQnoMlAk7j-19" style="edgeStyle=orthogonalEdgeStyle;rounded=0;orthogonalLoop=1;jettySize=auto;html=1;exitX=0.5;exitY=1;exitDx=0;exitDy=0;entryX=0.5;entryY=0;entryDx=0;entryDy=0;" parent="1" source="E9gw3oUcyaAQnoMlAk7j-5" target="E9gw3oUcyaAQnoMlAk7j-7" edge="1">
          <mxGeometry relative="1" as="geometry" />
        </mxCell>
        <mxCell id="E9gw3oUcyaAQnoMlAk7j-5" value="bilangan %a = 0 ?" style="rhombus;whiteSpace=wrap;html=1;" parent="1" vertex="1">
          <mxGeometry x="215" y="148" width="150" height="170" as="geometry" />
        </mxCell>
        <mxCell id="E9gw3oUcyaAQnoMlAk7j-6" value="faktor&amp;nbsp; = faktor + 1" style="rounded=0;whiteSpace=wrap;html=1;" parent="1" vertex="1">
          <mxGeometry x="419" y="203" width="120" height="60" as="geometry" />
        </mxCell>
        <mxCell id="E9gw3oUcyaAQnoMlAk7j-20" style="edgeStyle=orthogonalEdgeStyle;rounded=0;orthogonalLoop=1;jettySize=auto;html=1;exitX=0.5;exitY=1;exitDx=0;exitDy=0;entryX=0.5;entryY=0;entryDx=0;entryDy=0;" parent="1" source="E9gw3oUcyaAQnoMlAk7j-7" target="E9gw3oUcyaAQnoMlAk7j-8" edge="1">
          <mxGeometry relative="1" as="geometry" />
        </mxCell>
        <mxCell id="E9gw3oUcyaAQnoMlAk7j-7" value="a=a+1" style="rounded=0;whiteSpace=wrap;html=1;" parent="1" vertex="1">
          <mxGeometry x="230" y="361" width="120" height="60" as="geometry" />
        </mxCell>
        <mxCell id="E9gw3oUcyaAQnoMlAk7j-21" style="edgeStyle=orthogonalEdgeStyle;rounded=0;orthogonalLoop=1;jettySize=auto;html=1;exitX=0.5;exitY=1;exitDx=0;exitDy=0;entryX=0.5;entryY=0;entryDx=0;entryDy=0;" parent="1" source="E9gw3oUcyaAQnoMlAk7j-8" target="E9gw3oUcyaAQnoMlAk7j-9" edge="1">
          <mxGeometry relative="1" as="geometry" />
        </mxCell>
        <mxCell id="E9gw3oUcyaAQnoMlAk7j-8" value="a &amp;lt;= bilangan ?" style="rhombus;whiteSpace=wrap;html=1;" parent="1" vertex="1">
          <mxGeometry x="225" y="470" width="130" height="120" as="geometry" />
        </mxCell>
        <mxCell id="E9gw3oUcyaAQnoMlAk7j-22" style="edgeStyle=orthogonalEdgeStyle;rounded=0;orthogonalLoop=1;jettySize=auto;html=1;exitX=0;exitY=0.5;exitDx=0;exitDy=0;entryX=0.5;entryY=0;entryDx=0;entryDy=0;" parent="1" source="E9gw3oUcyaAQnoMlAk7j-9" target="E9gw3oUcyaAQnoMlAk7j-11" edge="1">
          <mxGeometry relative="1" as="geometry" />
        </mxCell>
        <mxCell id="E9gw3oUcyaAQnoMlAk7j-23" style="edgeStyle=orthogonalEdgeStyle;rounded=0;orthogonalLoop=1;jettySize=auto;html=1;exitX=1;exitY=0.5;exitDx=0;exitDy=0;entryX=0.5;entryY=0;entryDx=0;entryDy=0;" parent="1" source="E9gw3oUcyaAQnoMlAk7j-9" target="E9gw3oUcyaAQnoMlAk7j-10" edge="1">
          <mxGeometry relative="1" as="geometry" />
        </mxCell>
        <mxCell id="E9gw3oUcyaAQnoMlAk7j-9" value="faktor = 2 ?" style="rhombus;whiteSpace=wrap;html=1;" parent="1" vertex="1">
          <mxGeometry x="225" y="620" width="130" height="120" as="geometry" />
        </mxCell>
        <mxCell id="E9gw3oUcyaAQnoMlAk7j-26" style="edgeStyle=orthogonalEdgeStyle;rounded=0;orthogonalLoop=1;jettySize=auto;html=1;exitX=0.5;exitY=1;exitDx=0;exitDy=0;entryX=1;entryY=0.5;entryDx=0;entryDy=0;" parent="1" source="E9gw3oUcyaAQnoMlAk7j-10" target="E9gw3oUcyaAQnoMlAk7j-24" edge="1">
          <mxGeometry relative="1" as="geometry" />
        </mxCell>
        <mxCell id="E9gw3oUcyaAQnoMlAk7j-10" value="CETAK&lt;br&gt;Bilangan Bukan Prima" style="shape=parallelogram;perimeter=parallelogramPerimeter;whiteSpace=wrap;html=1;fixedSize=1;" parent="1" vertex="1">
          <mxGeometry x="344" y="728" width="160" height="60" as="geometry" />
        </mxCell>
        <mxCell id="E9gw3oUcyaAQnoMlAk7j-25" style="edgeStyle=orthogonalEdgeStyle;rounded=0;orthogonalLoop=1;jettySize=auto;html=1;exitX=0.5;exitY=1;exitDx=0;exitDy=0;entryX=0;entryY=0.5;entryDx=0;entryDy=0;" parent="1" source="E9gw3oUcyaAQnoMlAk7j-11" target="E9gw3oUcyaAQnoMlAk7j-24" edge="1">
          <mxGeometry relative="1" as="geometry" />
        </mxCell>
        <mxCell id="E9gw3oUcyaAQnoMlAk7j-11" value="CETAK&lt;br&gt;Bilangan Prima" style="shape=parallelogram;perimeter=parallelogramPerimeter;whiteSpace=wrap;html=1;fixedSize=1;" parent="1" vertex="1">
          <mxGeometry x="100" y="726" width="120" height="60" as="geometry" />
        </mxCell>
        <mxCell id="E9gw3oUcyaAQnoMlAk7j-24" value="END" style="rounded=1;whiteSpace=wrap;html=1;" parent="1" vertex="1">
          <mxGeometry x="240" y="814" width="120" height="60" as="geometry" />
        </mxCell>
      </root>
    </mxGraphModel>
  </diagram>
</mxfile>
